<?xml version="1.0" encoding="UTF-8"?>
<svg version="1.1" xmlns="http://www.w3.org/2000/svg" width="48" height="48">
<path d="M0 0 C3 1 3 1 4.20703125 3.015625 C5.96573656 5.37346773 5.96573656 5.37346773 9.57421875 5.609375 C10.9445155 5.67557291 12.31589455 5.7218251 13.6875 5.75 C14.7403418 5.79447266 14.7403418 5.79447266 15.81445312 5.83984375 C17.54235424 5.91037033 19.2711832 5.95747068 21 6 C21 7.32 21 8.64 21 10 C18.20775927 10.08071788 15.41783434 10.14035408 12.625 10.1875 C11.8309375 10.21263672 11.036875 10.23777344 10.21875 10.26367188 C8.14413852 10.29004405 6.06899135 10.15486462 4 10 C3.34 9.01 2.68 8.02 2 7 C0.68 9.97 -0.64 12.94 -2 16 C-6 14 -6 14 -8 11 C-10.609621 10.61588725 -13.0058074 10.39706803 -15.625 10.3125 C-16.33140625 10.27833984 -17.0378125 10.24417969 -17.765625 10.20898438 C-19.50985688 10.12648692 -21.25490395 10.06156665 -23 10 C-23 8.68 -23 7.36 -23 6 C-20.20775927 5.91928212 -17.41783434 5.85964592 -14.625 5.8125 C-13.8309375 5.78736328 -13.036875 5.76222656 -12.21875 5.73632812 C-10.14413852 5.70995595 -8.06899135 5.84513538 -6 6 C-5.01 7.485 -5.01 7.485 -4 9 C-2.68 6.03 -1.36 3.06 0 0 Z " fill="#DE1518" transform="translate(25,16)"/>
<path d="M0 0 C1.35113205 0.97581759 2.68946944 1.97029741 4 3 C6.39263407 2.33228817 8.22097385 1.77902615 10 0 C14.61544489 -0.58169863 18.00133167 -0.6241677 22 1.875 C25.71932063 5.82677817 25.08437656 8.7686532 25 14 C23.68 13.67 22.36 13.34 21 13 C20.9175 11.88625 20.835 10.7725 20.75 9.625 C20.38488285 6.04139185 20.38488285 6.04139185 18.3125 4.5 C15.17719132 3.82209542 13.07267358 4.08473553 10 5 C8.96854629 6.30915279 7.96457834 7.64082143 7 9 C5.68 9 4.36 9 3 9 C1.66666667 7.66666667 0.33333333 6.33333333 -1 5 C-3.74887076 4.03789523 -5.40082241 3.88349325 -8.25 4.4375 C-11.16946599 7.04416606 -10.75487787 10.20060694 -11 14 C-12.32 14 -13.64 14 -15 14 C-15.49029622 6.76813075 -15.49029622 6.76813075 -13.125 3.0625 C-9.20634764 -0.74089788 -5.252119 -0.58356878 0 0 Z " fill="#DE1518" transform="translate(19,6)"/>
<path d="M0 0 C2.19921875 -0.28125 2.19921875 -0.28125 5 0 C7.45703125 1.96875 7.45703125 1.96875 9.8125 4.5 C10.60269531 5.3353125 11.39289062 6.170625 12.20703125 7.03125 C12.79871094 7.6809375 13.39039063 8.330625 14 9 C17.21742696 7.60601633 19.11611526 5.98052653 21.4375 3.375 C24.62626266 0.05566301 24.62626266 0.05566301 27.9375 -0.4375 C28.9584375 -0.2209375 28.9584375 -0.2209375 30 0 C25.59156563 5.29012124 20.92440206 10.18808428 16 15 C11.69422496 13.33830526 8.90988145 10.16919694 5.75 6.9375 C5.19570312 6.38255859 4.64140625 5.82761719 4.0703125 5.25585938 C0 1.14043257 0 1.14043257 0 0 Z " fill="#DE1518" transform="translate(9,28)"/>
</svg>
