<?xml version="1.0" encoding="UTF-8"?>
<svg version="1.1" xmlns="http://www.w3.org/2000/svg" width="48" height="48">
<path d="M0 0 C3.75 0.375 3.75 0.375 6.625 2.75 C10.04429424 6.97383406 10.14069911 9.81065425 10.10546875 15.14453125 C9.41832273 21.38925388 7.21159111 28.2300022 3.30078125 33.2265625 C0.57866266 35.24243873 -2.01417978 34.72169502 -5.25 34.375 C-7.1875 33.3125 -7.1875 33.3125 -8.25 31.375 C-8.53673978 27.43232801 -8.19898529 24.17094115 -7.25 20.375 C-7.58 19.385 -7.91 18.395 -8.25 17.375 C-8.76028264 12.51476695 -9.11850314 8.00117136 -6.3125 3.8125 C-3.4204918 0.39467213 -3.4204918 0.39467213 0 0 Z M-2.4375 4.875 C-4.79987859 8.13345323 -5.11188123 10.36955558 -5.25 14.375 C-4.56357916 17.68970658 -4.56357916 17.68970658 -3.25 20.375 C-0.54120665 21.72939668 1.75933268 21.44001451 4.75 21.375 C6.77463635 16.06032958 7.87610273 11.90873114 5.5 6.5625 C3.92931319 4.31191599 3.92931319 4.31191599 1.8125 3.3125 C-0.40823098 3.19390014 -0.40823098 3.19390014 -2.4375 4.875 Z M-4.25 24.375 C-4.92958603 26.77219432 -4.92958603 26.77219432 -5.25 29.375 C-4.59 30.035 -3.93 30.695 -3.25 31.375 C-1.18400917 31.44254834 -1.18400917 31.44254834 0.75 30.375 C2.04660434 27.88465614 2.04660434 27.88465614 2.75 25.375 C0.44 25.045 -1.87 24.715 -4.25 24.375 Z " fill="#5EAC40" transform="translate(34.25,11.625)"/>
<path d="M0 0 C2.73193852 2.73193852 4.89599439 5.27167149 5.1328125 9.20703125 C5.1195444 13.63194371 4.94871513 17.66301656 4 22 C4.33 22.66 4.66 23.32 5 24 C5.44948064 30.18035883 5.44948064 30.18035883 3.9375 32.9375 C0.79665674 34.65989792 -1.49818786 34.49148241 -5 34 C-10.26666515 29.63619173 -12.51737664 21.64380637 -13.390625 15.05078125 C-13.61887117 9.0756226 -13.01883084 5.49163447 -9 1 C-5.87139505 -0.56430248 -3.44397075 -0.35627284 0 0 Z M-7.0625 4.875 C-9.19166814 7.21021667 -10.00603246 8.12076964 -9.984375 11.27734375 C-9.90703125 12.15519531 -9.8296875 13.03304688 -9.75 13.9375 C-9.68296875 14.81277344 -9.6159375 15.68804687 -9.546875 16.58984375 C-8.93079195 19.30500974 -8.12721673 20.26734767 -6 22 C-3.01779872 21.45160938 -3.01779872 21.45160938 0 20 C2.39601913 15.52048598 2.25904025 11.85629813 1 7 C-0.792191 4.53827847 -0.792191 4.53827847 -3 3 C-5.21791796 2.77577574 -5.21791796 2.77577574 -7.0625 4.875 Z M-6 25 C-5.29660434 27.50965614 -5.29660434 27.50965614 -4 30 C-2.06599083 31.06754834 -2.06599083 31.06754834 0 31 C0.66 30.34 1.32 29.68 2 29 C1.67958603 26.39719432 1.67958603 26.39719432 1 24 C-2.62885324 23.84850702 -2.62885324 23.84850702 -6 25 Z " fill="#5EAD40" transform="translate(17,2)"/>
</svg>
