<?xml version="1.0" encoding="UTF-8"?>
<svg version="1.1" xmlns="http://www.w3.org/2000/svg" width="48" height="48">
<path d="M0 0 C3.96 0 7.92 0 12 0 C16.10484656 6.77625464 16.61642095 12.16098909 16.5 20 C16.51546875 21.0415625 16.5309375 22.083125 16.546875 23.15625 C16.51290669 29.88197472 15.49097341 34.23712326 12 40 C8.04 40 4.08 40 0 40 C-4.10484656 33.22374536 -4.61642095 27.83901091 -4.5 20 C-4.51546875 18.9584375 -4.5309375 17.916875 -4.546875 16.84375 C-4.51290669 10.11802528 -3.49097341 5.76287674 0 0 Z M2 3 C2 3.99 2 4.98 2 6 C4.64 6 7.28 6 10 6 C10 5.01 10 4.02 10 3 C7.36 3 4.72 3 2 3 Z M-1 10 C-1.09880797 11.47652664 -1.13079245 12.95767236 -1.1328125 14.4375 C-1.13410156 15.33210938 -1.13539062 16.22671875 -1.13671875 17.1484375 C-1.13285156 18.08945312 -1.12898438 19.03046875 -1.125 20 C-1.12886719 20.94101562 -1.13273437 21.88203125 -1.13671875 22.8515625 C-1.13542969 23.74617188 -1.13414063 24.64078125 -1.1328125 25.5625 C-1.13168457 26.38878906 -1.13055664 27.21507813 -1.12939453 28.06640625 C-1.21264807 30.00679039 -1.21264807 30.00679039 0 31 C1.99799572 31.09873816 3.99957158 31.12971799 6 31.125 C7.093125 31.12757812 8.18625 31.13015625 9.3125 31.1328125 C11.91830354 31.30547755 11.91830354 31.30547755 13 30 C13.09880797 28.52347336 13.13079245 27.04232764 13.1328125 25.5625 C13.13410156 24.66789062 13.13539062 23.77328125 13.13671875 22.8515625 C13.13285156 21.91054688 13.12898438 20.96953125 13.125 20 C13.12886719 19.05898438 13.13273437 18.11796875 13.13671875 17.1484375 C13.13478516 15.80652344 13.13478516 15.80652344 13.1328125 14.4375 C13.13168457 13.61121094 13.13055664 12.78492188 13.12939453 11.93359375 C13.21264807 9.99320961 13.21264807 9.99320961 12 9 C10.00200428 8.90126184 8.00042842 8.87028201 6 8.875 C4.906875 8.87242188 3.81375 8.86984375 2.6875 8.8671875 C0.08169646 8.69452245 0.08169646 8.69452245 -1 10 Z M2 34 C2 34.99 2 35.98 2 37 C4.64 37 7.28 37 10 37 C10 36.01 10 35.02 10 34 C7.36 34 4.72 34 2 34 Z " fill="#3C887D" transform="translate(18,4)"/>
</svg>
